<mxfile host="www.draw.io" modified="2023-04-04T04:10:52.076Z" agent="Mozilla/5.0 (Windows NT 10.0; Win64; x64) AppleWebKit/537.36 (KHTML, like Gecko) Chrome/111.0.0.0 Safari/537.36" etag="chaZSWHDAKc__peFFoGq" version="21.1.4" type="device">
  <diagram name="Halaman-1" id="2OSMxlwVVKr0ypu20bMP">
    <mxGraphModel dx="1358" dy="569" grid="1" gridSize="10" guides="1" tooltips="1" connect="1" arrows="1" fold="1" page="1" pageScale="1" pageWidth="827" pageHeight="1169" math="0" shadow="0">
      <root>
        <mxCell id="0" />
        <mxCell id="1" parent="0" />
        <mxCell id="wv0MpgCeXXsuMhvxBi-6-22" value="Masukan URL" style="rounded=1;whiteSpace=wrap;html=1;arcSize=40;fontColor=#000000;fillColor=#ffffc0;strokeColor=#ff0000;" vertex="1" parent="1">
          <mxGeometry x="490" y="120" width="120" height="40" as="geometry" />
        </mxCell>
        <mxCell id="wv0MpgCeXXsuMhvxBi-6-23" value="" style="edgeStyle=orthogonalEdgeStyle;html=1;verticalAlign=bottom;endArrow=open;endSize=8;strokeColor=#ff0000;rounded=0;" edge="1" source="wv0MpgCeXXsuMhvxBi-6-22" parent="1">
          <mxGeometry relative="1" as="geometry">
            <mxPoint x="550" y="220" as="targetPoint" />
          </mxGeometry>
        </mxCell>
        <mxCell id="wv0MpgCeXXsuMhvxBi-6-24" value="Klik button Login" style="rounded=1;whiteSpace=wrap;html=1;arcSize=40;fontColor=#000000;fillColor=#ffffc0;strokeColor=#ff0000;" vertex="1" parent="1">
          <mxGeometry x="490" y="220" width="120" height="40" as="geometry" />
        </mxCell>
        <mxCell id="wv0MpgCeXXsuMhvxBi-6-25" value="" style="edgeStyle=orthogonalEdgeStyle;html=1;verticalAlign=bottom;endArrow=open;endSize=8;strokeColor=#ff0000;rounded=0;" edge="1" source="wv0MpgCeXXsuMhvxBi-6-24" parent="1">
          <mxGeometry relative="1" as="geometry">
            <mxPoint x="550" y="320" as="targetPoint" />
          </mxGeometry>
        </mxCell>
        <mxCell id="wv0MpgCeXXsuMhvxBi-6-26" value="Input Email dan Password" style="rounded=1;whiteSpace=wrap;html=1;arcSize=40;fontColor=#000000;fillColor=#ffffc0;strokeColor=#ff0000;" vertex="1" parent="1">
          <mxGeometry x="490" y="439" width="120" height="40" as="geometry" />
        </mxCell>
        <mxCell id="wv0MpgCeXXsuMhvxBi-6-28" value="Validasi Data Login" style="rounded=1;whiteSpace=wrap;html=1;arcSize=40;fontColor=#000000;fillColor=#ffffc0;strokeColor=#ff0000;" vertex="1" parent="1">
          <mxGeometry x="680" y="439" width="120" height="40" as="geometry" />
        </mxCell>
        <mxCell id="wv0MpgCeXXsuMhvxBi-6-31" value="Berhasil" style="rhombus;whiteSpace=wrap;html=1;fontColor=#000000;fillColor=#ffffc0;strokeColor=#ff0000;" vertex="1" parent="1">
          <mxGeometry x="700" y="549" width="80" height="40" as="geometry" />
        </mxCell>
        <mxCell id="wv0MpgCeXXsuMhvxBi-6-36" value="" style="ellipse;html=1;shape=startState;fillColor=#000000;strokeColor=#ff0000;" vertex="1" parent="1">
          <mxGeometry x="535" y="30" width="30" height="30" as="geometry" />
        </mxCell>
        <mxCell id="wv0MpgCeXXsuMhvxBi-6-37" value="" style="edgeStyle=orthogonalEdgeStyle;html=1;verticalAlign=bottom;endArrow=open;endSize=8;strokeColor=#ff0000;rounded=0;" edge="1" source="wv0MpgCeXXsuMhvxBi-6-36" parent="1">
          <mxGeometry relative="1" as="geometry">
            <mxPoint x="550" y="120" as="targetPoint" />
          </mxGeometry>
        </mxCell>
        <mxCell id="wv0MpgCeXXsuMhvxBi-6-40" value="" style="ellipse;html=1;shape=startState;fillColor=#000000;strokeColor=#ff0000;" vertex="1" parent="1">
          <mxGeometry x="540" y="699" width="30" height="30" as="geometry" />
        </mxCell>
        <mxCell id="wv0MpgCeXXsuMhvxBi-6-43" value="Tampil Halaman Dashboard" style="rounded=1;whiteSpace=wrap;html=1;arcSize=40;fontColor=#000000;fillColor=#ffffc0;strokeColor=#ff0000;" vertex="1" parent="1">
          <mxGeometry x="495" y="599" width="120" height="40" as="geometry" />
        </mxCell>
        <mxCell id="wv0MpgCeXXsuMhvxBi-6-44" value="" style="edgeStyle=orthogonalEdgeStyle;html=1;verticalAlign=bottom;endArrow=open;endSize=8;strokeColor=#ff0000;rounded=0;" edge="1" source="wv0MpgCeXXsuMhvxBi-6-43" parent="1">
          <mxGeometry relative="1" as="geometry">
            <mxPoint x="555" y="699" as="targetPoint" />
          </mxGeometry>
        </mxCell>
        <mxCell id="wv0MpgCeXXsuMhvxBi-6-45" value="" style="edgeStyle=orthogonalEdgeStyle;html=1;verticalAlign=bottom;endArrow=open;endSize=8;strokeColor=#ff0000;rounded=0;exitX=1;exitY=0.5;exitDx=0;exitDy=0;entryX=0;entryY=0.5;entryDx=0;entryDy=0;" edge="1" parent="1" source="wv0MpgCeXXsuMhvxBi-6-26" target="wv0MpgCeXXsuMhvxBi-6-28">
          <mxGeometry relative="1" as="geometry">
            <mxPoint x="560" y="449" as="targetPoint" />
            <mxPoint x="560" y="389" as="sourcePoint" />
          </mxGeometry>
        </mxCell>
        <mxCell id="wv0MpgCeXXsuMhvxBi-6-47" value="" style="edgeStyle=orthogonalEdgeStyle;html=1;verticalAlign=bottom;endArrow=open;endSize=8;strokeColor=#ff0000;rounded=0;exitX=0.5;exitY=1;exitDx=0;exitDy=0;entryX=0.5;entryY=0;entryDx=0;entryDy=0;" edge="1" parent="1" source="wv0MpgCeXXsuMhvxBi-6-28" target="wv0MpgCeXXsuMhvxBi-6-31">
          <mxGeometry relative="1" as="geometry">
            <mxPoint x="690" y="469" as="targetPoint" />
            <mxPoint x="620" y="469" as="sourcePoint" />
          </mxGeometry>
        </mxCell>
        <mxCell id="wv0MpgCeXXsuMhvxBi-6-49" value="" style="edgeStyle=orthogonalEdgeStyle;html=1;verticalAlign=bottom;endArrow=open;endSize=8;strokeColor=#ff0000;rounded=0;exitX=0.5;exitY=1;exitDx=0;exitDy=0;entryX=1;entryY=0.5;entryDx=0;entryDy=0;" edge="1" parent="1" source="wv0MpgCeXXsuMhvxBi-6-31" target="wv0MpgCeXXsuMhvxBi-6-43">
          <mxGeometry relative="1" as="geometry">
            <mxPoint x="760" y="618.47" as="targetPoint" />
            <mxPoint x="690" y="618.47" as="sourcePoint" />
          </mxGeometry>
        </mxCell>
        <mxCell id="wv0MpgCeXXsuMhvxBi-6-50" value="" style="edgeStyle=orthogonalEdgeStyle;html=1;verticalAlign=bottom;endArrow=open;endSize=8;strokeColor=#ff0000;rounded=0;exitX=0;exitY=0.5;exitDx=0;exitDy=0;entryX=0.5;entryY=1;entryDx=0;entryDy=0;" edge="1" parent="1" source="wv0MpgCeXXsuMhvxBi-6-31" target="wv0MpgCeXXsuMhvxBi-6-26">
          <mxGeometry relative="1" as="geometry">
            <mxPoint x="690" y="469" as="targetPoint" />
            <mxPoint x="620" y="469" as="sourcePoint" />
          </mxGeometry>
        </mxCell>
        <mxCell id="wv0MpgCeXXsuMhvxBi-6-51" value="No" style="text;html=1;strokeColor=none;fillColor=none;align=center;verticalAlign=middle;whiteSpace=wrap;rounded=0;" vertex="1" parent="1">
          <mxGeometry x="660" y="539" width="60" height="30" as="geometry" />
        </mxCell>
        <mxCell id="wv0MpgCeXXsuMhvxBi-6-52" value="Yess" style="text;html=1;strokeColor=none;fillColor=none;align=center;verticalAlign=middle;whiteSpace=wrap;rounded=0;" vertex="1" parent="1">
          <mxGeometry x="740" y="589" width="60" height="30" as="geometry" />
        </mxCell>
        <mxCell id="wv0MpgCeXXsuMhvxBi-6-53" value="Tampil Halaman Login" style="rounded=1;whiteSpace=wrap;html=1;arcSize=40;fontColor=#000000;fillColor=#ffffc0;strokeColor=#ff0000;" vertex="1" parent="1">
          <mxGeometry x="490" y="320" width="120" height="40" as="geometry" />
        </mxCell>
        <mxCell id="wv0MpgCeXXsuMhvxBi-6-54" value="" style="edgeStyle=orthogonalEdgeStyle;html=1;verticalAlign=bottom;endArrow=open;endSize=8;strokeColor=#ff0000;rounded=0;exitX=0.5;exitY=1;exitDx=0;exitDy=0;" edge="1" parent="1" source="wv0MpgCeXXsuMhvxBi-6-53">
          <mxGeometry relative="1" as="geometry">
            <mxPoint x="549.47" y="439" as="targetPoint" />
            <mxPoint x="549.47" y="379" as="sourcePoint" />
          </mxGeometry>
        </mxCell>
      </root>
    </mxGraphModel>
  </diagram>
</mxfile>
